<svg width="13" height="13" viewBox="0 0 13 13" fill="none" xmlns="http://www.w3.org/2000/svg">
<path d="M11.5315 10.1231L12.0276 10.1851L11.5315 10.1231ZM1.22237 10.1851L0.714618 6.12307L1.7069 5.99904L2.21465 10.0611L1.22237 10.1851ZM12.5354 6.12307L12.0276 10.1851L11.0354 10.0611L11.5431 5.99903L12.5354 6.12307ZM9.54694 12.375L3.70306 12.375V11.375L9.54694 11.375V12.375ZM10.5508 4.875L2.69917 4.875V3.875L10.5508 3.875L10.5508 4.875ZM12.0276 10.1851C11.8712 11.4362 10.8077 12.375 9.54694 12.375V11.375C10.3034 11.375 10.9415 10.8117 11.0354 10.0611L12.0276 10.1851ZM11.5431 5.99903C11.6177 5.40218 11.1523 4.875 10.5508 4.875L10.5508 3.875C11.7538 3.875 12.6846 4.92936 12.5354 6.12307L11.5431 5.99903ZM0.714618 6.12307C0.565404 4.92936 1.49618 3.875 2.69917 3.875V4.875C2.09768 4.875 1.63229 5.40218 1.7069 5.99904L0.714618 6.12307ZM2.21465 10.0611C2.30848 10.8117 2.94658 11.375 3.70306 11.375V12.375C2.44226 12.375 1.37875 11.4362 1.22237 10.1851L2.21465 10.0611Z" fill="#CB2031"/>
<path d="M2.875 4.375L5.10649 1.7716C5.90468 0.840376 7.34532 0.840374 8.14351 1.7716L10.375 4.375H2.875Z" stroke="#CB2031" stroke-linecap="round"/>
<path d="M3.8125 6.5625V9.6875" stroke="#CB2031" stroke-linecap="round"/>
<path d="M6.625 6.5625V9.6875" stroke="#CB2031" stroke-linecap="round"/>
<path d="M9.4375 6.5625V9.6875" stroke="#CB2031" stroke-linecap="round"/>
</svg>
