<svg width="33" height="33" viewBox="0 0 33 33" fill="none" xmlns="http://www.w3.org/2000/svg">
<path fill-rule="evenodd" clip-rule="evenodd" d="M30.9647 16.2025C30.9647 8.0495 24.3554 1.44022 16.2025 1.44022C8.0495 1.44022 1.44022 8.0495 1.44022 16.2025C1.44022 24.3554 8.0495 30.9647 16.2025 30.9647C24.3554 30.9647 30.9647 24.3554 30.9647 16.2025ZM16.2025 0C25.1508 0 32.4049 7.25409 32.4049 16.2025C32.4049 25.1508 25.1508 32.4049 16.2025 32.4049C7.25409 32.4049 0 25.1508 0 16.2025C0 7.25409 7.25409 0 16.2025 0Z" fill="#606060"/>
<path fill-rule="evenodd" clip-rule="evenodd" d="M15.7761 9.20285C13.0877 9.20285 10.9084 11.3822 10.9084 14.0706C10.9084 16.7589 13.0877 18.9383 15.7761 18.9383C18.4644 18.9383 20.6438 16.7589 20.6438 14.0706C20.6438 11.3822 18.4644 9.20285 15.7761 9.20285ZM9.38037 14.0706C9.38037 10.5383 12.2439 7.67487 15.7761 7.67487C19.3083 7.67487 22.1718 10.5383 22.1718 14.0706C22.1718 17.6028 19.3083 20.4663 15.7761 20.4663C12.2439 20.4663 9.38037 17.6028 9.38037 14.0706Z" fill="#606060"/>
<path fill-rule="evenodd" clip-rule="evenodd" d="M10.6913 24.2346C9.23094 25.3212 8.40741 26.7585 8.40741 28.2727C8.40741 28.6744 8.09235 29 7.7037 29C7.31506 29 7 28.6744 7 28.2727C7 26.172 8.14558 24.3365 9.8689 23.0542C11.5933 21.7711 13.94 21 16.5 21C19.06 21 21.4067 21.7711 23.1311 23.0542C24.8544 24.3365 26 26.172 26 28.2727C26 28.6744 25.6849 29 25.2963 29C24.9077 29 24.5926 28.6744 24.5926 28.2727C24.5926 26.7585 23.7691 25.3212 22.3087 24.2346C20.8495 23.1487 18.798 22.4545 16.5 22.4545C14.202 22.4545 12.1505 23.1487 10.6913 24.2346Z" fill="#606060"/>
</svg>
