<svg width="45" height="45" viewBox="0 0 45 45" fill="none" xmlns="http://www.w3.org/2000/svg">
<path d="M22.5 1C34.3741 1 44 10.6259 44 22.5C44 34.3741 34.3741 44 22.5 44C10.6259 44 1 34.3741 1 22.5C1 10.6259 10.6259 1 22.5 1Z" stroke="#606060" stroke-width="2"/>
<path d="M29.2571 19.4284C29.2571 23.4995 25.9567 26.7998 21.8856 26.7998C17.8146 26.7998 14.5142 23.4995 14.5142 19.4284C14.5142 15.3572 17.8146 12.0569 21.8856 12.0569C25.9567 12.0569 29.2571 15.3572 29.2571 19.4284Z" stroke="#606060" stroke-width="2"/>
<path d="M35 40C35 35.0294 29.4036 31 22.5 31C15.5964 31 10 35.0294 10 40" stroke="#606060" stroke-width="2" stroke-linecap="round"/>
</svg>
