<svg width="14" height="14" viewBox="0 0 14 14" fill="none" xmlns="http://www.w3.org/2000/svg">
<path d="M12.25 5.375C12.25 2.95875 10.0114 1 7.25 1C4.48858 1 2.25 2.95875 2.25 5.375" stroke="#CB2031"/>
<path d="M10.875 4.875H11V5.875H10.875V4.875ZM10.875 9.875H11V10.875H10.875V9.875ZM9.875 9.875V5.875H10.875V9.875H9.875ZM10.875 10.875C10.3227 10.875 9.875 10.4273 9.875 9.875H10.875V10.875ZM14 7.875C14 9.53185 12.6569 10.875 11 10.875V9.875C12.1046 9.875 13 8.97957 13 7.875H14ZM11 4.875C12.6569 4.875 14 6.21815 14 7.875H13C13 6.77043 12.1046 5.875 11 5.875V4.875ZM10.875 5.875H9.875C9.875 5.32272 10.3227 4.875 10.875 4.875V5.875Z" fill="#CB2031"/>
<path d="M10.375 11.75H9.125V12.75H10.375V11.75ZM10.375 12.75C11.6867 12.75 12.75 11.6867 12.75 10.375H11.75C11.75 11.1344 11.1344 11.75 10.375 11.75V12.75Z" fill="#CB2031"/>
<path d="M7.875 10.5H6.625V11.5H7.875V10.5ZM7.875 13H6.625V14H7.875V13ZM7.875 14C8.8415 14 9.625 13.2165 9.625 12.25H8.625C8.625 12.6642 8.28921 13 7.875 13V14ZM4.875 12.25C4.875 13.2165 5.6585 14 6.625 14V13C6.21079 13 5.875 12.6642 5.875 12.25H4.875ZM6.625 10.5C5.6585 10.5 4.875 11.2835 4.875 12.25H5.875C5.875 11.8358 6.21079 11.5 6.625 11.5V10.5ZM7.875 11.5C8.28921 11.5 8.625 11.8358 8.625 12.25H9.625C9.625 11.2835 8.8415 10.5 7.875 10.5V11.5Z" fill="#CB2031"/>
<path d="M3.5 4.875H3.625V5.875H3.5V4.875ZM4.625 5.875V9.875H3.625V5.875H4.625ZM3.5 9.875H3.625V10.875H3.5V9.875ZM3.5 10.875C1.84315 10.875 0.5 9.53185 0.5 7.875H1.5C1.5 8.97957 2.39543 9.875 3.5 9.875V10.875ZM4.625 9.875C4.625 10.4273 4.17728 10.875 3.625 10.875V9.875V9.875H4.625ZM3.625 4.875C4.17728 4.875 4.625 5.32272 4.625 5.875H3.625V4.875ZM3.5 5.875C2.39543 5.875 1.5 6.77043 1.5 7.875H0.5C0.5 6.21815 1.84315 4.875 3.5 4.875V5.875Z" fill="#CB2031"/>
</svg>
