<svg width="35" height="35" viewBox="0 0 35 35" fill="none" xmlns="http://www.w3.org/2000/svg">
<path fill-rule="evenodd" clip-rule="evenodd" d="M10.9383 24.1069C10.5712 24.1069 10.2615 23.8298 10.216 23.4605L9.13367 14.6821C9.10652 14.4619 9.2759 14.2673 9.49481 14.2673L23.7628 14.2673C23.9817 14.2673 24.1511 14.4619 24.1239 14.6821L23.0416 23.4605C22.9961 23.8298 22.6864 24.1069 22.3193 24.1069H10.9383ZM8.77145 23.6435C8.90804 24.7514 9.83698 25.5828 10.9383 25.5828L22.3193 25.5828C23.4206 25.5828 24.3495 24.7514 24.4861 23.6435L25.5685 14.8652C25.7042 13.764 24.8573 12.7914 23.7628 12.7914L9.49481 12.7914C8.40024 12.7914 7.55336 13.764 7.68913 14.8652L8.77145 23.6435Z" fill="#CB2031"/>
<path fill-rule="evenodd" clip-rule="evenodd" d="M17.188 9.29842C16.894 8.97663 16.3634 8.97663 16.0695 9.29842L12.5832 13.1147H20.6743L17.188 9.29842ZM14.951 8.39889C15.8329 7.43352 17.4246 7.43353 18.3064 8.39889L23.8772 14.497H9.38025L14.951 8.39889Z" fill="#CB2031"/>
<path fill-rule="evenodd" clip-rule="evenodd" d="M11.9386 16.2025C12.4095 16.2025 12.7913 16.521 12.7913 16.914V21.4602C12.7913 21.8532 12.4095 22.1718 11.9386 22.1718C11.4676 22.1718 11.0858 21.8532 11.0858 21.4602V16.914C11.0858 16.521 11.4676 16.2025 11.9386 16.2025Z" fill="#CB2031"/>
<path fill-rule="evenodd" clip-rule="evenodd" d="M16.2024 16.2025C16.6733 16.2025 17.0551 16.521 17.0551 16.914V21.4602C17.0551 21.8532 16.6733 22.1718 16.2024 22.1718C15.7314 22.1718 15.3496 21.8532 15.3496 21.4602V16.914C15.3496 16.521 15.7314 16.2025 16.2024 16.2025Z" fill="#CB2031"/>
<path fill-rule="evenodd" clip-rule="evenodd" d="M20.4662 16.2025C20.9371 16.2025 21.3189 16.521 21.3189 16.914V21.4602C21.3189 21.8532 20.9371 22.1718 20.4662 22.1718C19.9952 22.1718 19.6134 21.8532 19.6134 21.4602V16.914C19.6134 16.521 19.9952 16.2025 20.4662 16.2025Z" fill="#CB2031"/>
<path fill-rule="evenodd" clip-rule="evenodd" d="M16.2025 30.9647C24.3554 30.9647 30.9647 24.3554 30.9647 16.2025C30.9647 8.0495 24.3554 1.44022 16.2025 1.44022C8.0495 1.44022 1.44022 8.0495 1.44022 16.2025C1.44022 24.3554 8.0495 30.9647 16.2025 30.9647ZM16.2025 32.4049C25.1508 32.4049 32.4049 25.1508 32.4049 16.2025C32.4049 7.25409 25.1508 0 16.2025 0C7.25409 0 0 7.25409 0 16.2025C0 25.1508 7.25409 32.4049 16.2025 32.4049Z" fill="#CB2031"/>
<path d="M34.1104 26.4356C34.1104 30.6743 30.6743 34.1104 26.4356 34.1104C22.1969 34.1104 18.7607 30.6743 18.7607 26.4356C18.7607 22.1969 22.1969 18.7607 26.4356 18.7607C30.6743 18.7607 34.1104 22.1969 34.1104 26.4356Z" fill="#CB2031"/>
<path d="M28.1411 28.7985V29.8466H25.161V28.7985H26.1663V25.3594C26.1663 25.272 26.1675 25.1847 26.1699 25.0974C26.1723 25.0069 26.1759 24.9164 26.1807 24.826L25.5847 25.4717C25.532 25.5247 25.4793 25.5575 25.4267 25.57C25.3764 25.5793 25.3285 25.5793 25.2831 25.57C25.2376 25.5575 25.1969 25.5372 25.161 25.5091C25.1251 25.4779 25.0987 25.4467 25.082 25.4155L24.7301 24.8073L26.3602 23.0245H27.2794V28.7985H28.1411Z" fill="white"/>
</svg>
