<svg width="33" height="33" viewBox="0 0 33 33" fill="none" xmlns="http://www.w3.org/2000/svg">
<path fill-rule="evenodd" clip-rule="evenodd" d="M23.2262 18.0596C24.8119 16.368 24.7242 13.5979 23.0352 12.0242C21.5344 10.6259 19.2842 10.6702 17.8328 12.1266L16.8022 13.1607C16.5205 13.4434 16.0774 13.4289 15.8125 13.1284C15.5475 12.8279 15.5611 12.3552 15.8428 12.0725L16.8733 11.0384C18.8494 9.05546 21.9131 8.99515 23.9564 10.8989C26.2559 13.0415 26.3752 16.8129 24.2164 19.116L22.109 21.3643L17.6993 25.4513C16.9093 26.1834 15.7347 26.1836 14.9446 25.4517L13.3573 23.9815C13.0653 23.711 13.0341 23.2392 13.2876 22.9277C13.5411 22.6162 13.9833 22.5829 14.2753 22.8534L15.8627 24.3236C16.126 24.5676 16.5176 24.5675 16.7809 24.3235L21.1536 20.2708L23.2262 18.0596Z" fill="#333333"/>
<path fill-rule="evenodd" clip-rule="evenodd" d="M9.41846 18.0593C7.83288 16.3677 7.92054 13.5977 9.60945 12.024C11.1103 10.6257 13.3606 10.6701 14.8119 12.1266L15.8421 13.1605C16.1238 13.4432 16.5669 13.4287 16.8319 13.1282C17.0968 12.8277 17.0833 12.355 16.8016 12.0723L15.7714 11.0384C13.7954 9.05537 10.7316 8.99496 8.6883 10.8988C6.38887 13.0413 6.26952 16.8126 8.42827 19.1157L10.5357 21.364L14.9447 25.451C15.7346 26.1832 16.9091 26.1835 17.6993 25.4518L19.2873 23.9813C19.5794 23.7109 19.6106 23.2391 19.3572 22.9275C19.1037 22.616 18.6615 22.5826 18.3694 22.853L16.7814 24.3235C16.518 24.5674 16.1265 24.5673 15.8632 24.3233L11.4912 20.2706L9.41846 18.0593Z" fill="#333333"/>
<path fill-rule="evenodd" clip-rule="evenodd" d="M16.2025 30.9647C24.3554 30.9647 30.9647 24.3554 30.9647 16.2025C30.9647 8.0495 24.3554 1.44022 16.2025 1.44022C8.0495 1.44022 1.44022 8.0495 1.44022 16.2025C1.44022 24.3554 8.0495 30.9647 16.2025 30.9647ZM16.2025 32.4049C25.1508 32.4049 32.4049 25.1508 32.4049 16.2025C32.4049 7.25409 25.1508 0 16.2025 0C7.25409 0 0 7.25409 0 16.2025C0 25.1508 7.25409 32.4049 16.2025 32.4049Z" fill="#333333"/>
</svg>
