<svg width="45" height="45" viewBox="0 0 45 45" fill="none" xmlns="http://www.w3.org/2000/svg">
<path d="M22.9999 17.4272L24.4234 15.9988C26.7906 13.6234 30.4607 13.5511 32.9084 15.8317V15.8317C35.663 18.3983 35.806 22.9162 33.2199 25.6752L30.333 28.7551L24.2674 34.3767C23.54 35.0509 22.4584 35.0511 21.7307 34.3771L19.5382 32.3463" stroke="#333333" stroke-width="2" stroke-linecap="round"/>
<path d="M22.9994 17.4269L21.5764 15.9988C19.2093 13.6232 15.5392 13.5509 13.0914 15.8315V15.8315C10.3369 18.398 10.1939 22.9158 12.7799 25.6747L15.667 28.7547L21.7315 34.3764C22.4589 35.0506 23.5404 35.0509 24.2681 34.3771L26.4617 32.3459" stroke="#333333" stroke-width="2" stroke-linecap="round"/>
<circle cx="22.5" cy="22.5" r="21.5" stroke="#333333" stroke-width="2"/>
</svg>
