<svg width="47" height="47" viewBox="0 0 47 47" fill="none" xmlns="http://www.w3.org/2000/svg">
<path d="M32.3023 32.5257L33.2946 32.6497L32.3023 32.5257ZM33.7892 20.6303L34.7815 20.7543L33.7892 20.6303ZM11.2108 20.6303L10.2185 20.7543L11.2108 20.6303ZM11.7054 32.6497L10.2185 20.7543L12.203 20.5063L13.69 32.4016L11.7054 32.6497ZM34.7815 20.7543L33.2946 32.6497L31.31 32.4016L32.797 20.5063L34.7815 20.7543ZM30.3178 35.2776H14.6822V33.2776H30.3178V35.2776ZM32.3008 19.9443H12.6992V17.9443L32.3008 17.9443V19.9443ZM33.2946 32.6497C33.1069 34.151 31.8307 35.2776 30.3178 35.2776V33.2776C30.8221 33.2776 31.2475 32.9021 31.31 32.4016L33.2946 32.6497ZM32.797 20.5063C32.8343 20.2078 32.6016 19.9443 32.3008 19.9443V17.9443C33.8046 17.9443 34.968 19.2622 34.7815 20.7543L32.797 20.5063ZM10.2185 20.7543C10.032 19.2622 11.1954 17.9443 12.6992 17.9443V19.9443C12.3984 19.9443 12.1657 20.2078 12.203 20.5063L10.2185 20.7543ZM13.69 32.4016C13.7525 32.9021 14.1779 33.2776 14.6822 33.2776V35.2776C13.1693 35.2776 11.8931 34.151 11.7054 32.6497L13.69 32.4016Z" fill="#CB2031"/>
<path d="M14.8334 18.9444L20.9816 11.7716C21.7798 10.8404 23.2204 10.8404 24.0186 11.7716L30.1668 18.9444H14.8334Z" stroke="#CB2031" stroke-width="2" stroke-linecap="round"/>
<path d="M16.75 23.4164V29.8053" stroke="#CB2031" stroke-width="2" stroke-linecap="round"/>
<path d="M22.5 23.4164V29.8053" stroke="#CB2031" stroke-width="2" stroke-linecap="round"/>
<path d="M28.25 23.4164V29.8053" stroke="#CB2031" stroke-width="2" stroke-linecap="round"/>
<circle cx="22.5" cy="22.5" r="21.5" stroke="#CB2031" stroke-width="2"/>
<circle cx="36.5" cy="36.5" r="10.5" fill="#CB2031"/>
<path d="M39.306 39.656V41H34.326V39.656H36.006V35.246C36.006 35.134 36.008 35.022 36.012 34.91C36.016 34.794 36.022 34.678 36.03 34.562L35.034 35.39C34.946 35.458 34.858 35.5 34.77 35.516C34.686 35.528 34.606 35.528 34.53 35.516C34.454 35.5 34.386 35.474 34.326 35.438C34.266 35.398 34.222 35.358 34.194 35.318L33.606 34.538L36.33 32.252H37.866V39.656H39.306Z" fill="white"/>
</svg>
