<svg width="14" height="13" viewBox="0 0 14 13" fill="none" xmlns="http://www.w3.org/2000/svg">
<path d="M9.125 10.375L9.125 10.875L9.625 10.875L9.625 10.375L9.125 10.375ZM7.375 1L7.375 1.5L7.375 1ZM2.75 1L2.75 0.5L2.75 1ZM1.5 8.625L1.5 2.75L0.5 2.75L0.499999 8.625L1.5 8.625ZM2.75 1.5L7.375 1.5L7.375 0.5L2.75 0.5L2.75 1.5ZM8.625 2.75L8.625 10.375L9.625 10.375L9.625 2.75L8.625 2.75ZM9.125 9.875L2.75 9.875L2.75 10.875L9.125 10.875L9.125 9.875ZM7.375 1.5C8.06536 1.5 8.625 2.05964 8.625 2.75L9.625 2.75C9.625 1.50736 8.61764 0.5 7.375 0.5L7.375 1.5ZM1.5 2.75C1.5 2.05964 2.05964 1.5 2.75 1.5L2.75 0.5C1.50736 0.5 0.5 1.50736 0.5 2.75L1.5 2.75ZM0.499999 8.625C0.499999 9.86764 1.50736 10.875 2.75 10.875L2.75 9.875C2.05964 9.875 1.5 9.31536 1.5 8.625L0.499999 8.625Z" fill="#CB2031"/>
<path d="M9.125 10.375L8.625 10.375L8.625 10.875L9.125 10.875L9.125 10.375ZM11.92 2.92579L11.4989 3.19532L11.92 2.92579ZM13.1845 4.90163L12.7634 5.17116L13.1845 4.90163ZM9.625 10.375L9.625 3.46484L8.625 3.46484L8.625 10.375L9.625 10.375ZM13 5.97974L13 9.375L14 9.375L14 5.97974L13 5.97974ZM12.5 9.875L9.125 9.875L9.125 10.875L12.5 10.875L12.5 9.875ZM10.125 2.96484L11.0777 2.96484L11.0777 1.96484L10.125 1.96484L10.125 2.96484ZM11.4989 3.19532L12.7634 5.17116L13.6057 4.6321L12.3411 2.65626L11.4989 3.19532ZM11.0777 2.96484C11.2482 2.96484 11.407 3.05172 11.4989 3.19532L12.3411 2.65626C12.0654 2.22546 11.5892 1.96484 11.0777 1.96484L11.0777 2.96484ZM14 5.97974C14 5.50208 13.8632 5.03442 13.6057 4.6321L12.7634 5.17116C12.9179 5.41255 13 5.69314 13 5.97974L14 5.97974ZM9.625 3.46484C9.625 3.1887 9.84886 2.96484 10.125 2.96484L10.125 1.96484C9.29657 1.96484 8.625 2.63642 8.625 3.46484L9.625 3.46484ZM13 9.375C13 9.65114 12.7761 9.875 12.5 9.875L12.5 10.875C13.3284 10.875 14 10.2034 14 9.375L13 9.375Z" fill="#CB2031"/>
<path d="M13.5 5.375L9.125 5.375" stroke="#CB2031"/>
<path d="M12.25 11.1562C12.25 10.7248 11.9002 10.375 11.4688 10.375C11.0373 10.375 10.6875 10.7248 10.6875 11.1562C10.6875 11.5877 11.0373 11.9375 11.4687 11.9375C11.9002 11.9375 12.25 11.5877 12.25 11.1562Z" stroke="#CB2031"/>
<path d="M3.8125 11.1562C3.8125 10.7248 3.46272 10.375 3.03125 10.375C2.59978 10.375 2.25 10.7248 2.25 11.1562C2.25 11.5877 2.59978 11.9375 3.03125 11.9375C3.46272 11.9375 3.8125 11.5877 3.8125 11.1562Z" stroke="#CB2031"/>
</svg>
